<svg xmlns="http://www.w3.org/2000/svg" xmlns:xlink="http://www.w3.org/1999/xlink" width="500" zoomAndPan="magnify" viewBox="0 0 375 374.999991" height="500" preserveAspectRatio="xMidYMid meet" version="1.0"><defs><g/></defs><g fill="#000000" fill-opacity="1"><g transform="translate(110.222825, 221.590437)"><g><path d="M -2.671875 0 L 15.097656 0 L 15.097656 -2.042969 C 9.75 -3.144531 9.121094 -8.335938 13.210938 -18.558594 L 22.488281 -41.519531 L 66.839844 -41.519531 L 76.433594 -18.402344 C 81.464844 -6.605469 82.726562 -3.460938 77.847656 -2.042969 L 77.847656 0 L 102.226562 0 L 102.226562 -2.042969 C 98.921875 -3.460938 95.148438 -6.605469 90.273438 -18.402344 L 51.585938 -111.347656 L 39.789062 -106 L 41.207031 -102.699219 C 42.464844 -100.183594 42.621094 -98.136719 41.519531 -95.304688 L 10.539062 -18.558594 C 5.660156 -6.605469 1.730469 -3.460938 -2.671875 -2.042969 Z M 23.433594 -43.878906 L 44.351562 -95.621094 L 65.898438 -43.878906 Z M 23.433594 -43.878906 "/></g></g></g><g fill="#000000" fill-opacity="1"><g transform="translate(166.234497, 269.042034)"><g><path d="M 8.019531 0 L 40.105469 0 C 78.320312 0 91.53125 -18.558594 91.21875 -36.171875 C 91.058594 -51.585938 79.738281 -64.324219 54.101562 -65.582031 C 72.03125 -68.886719 78.949219 -78.636719 78.949219 -89.332031 C 78.949219 -102.070312 69.042969 -110.089844 44.824219 -110.089844 L 8.019531 -110.089844 L 8.019531 -108.046875 C 12.738281 -106.628906 14.3125 -103.011719 14.3125 -90.117188 L 14.3125 -19.972656 C 14.3125 -7.078125 12.738281 -3.460938 8.019531 -2.042969 Z M 27.207031 -16.042969 L 27.207031 -63.539062 L 43.25 -63.539062 C 66.839844 -63.539062 76.90625 -50.328125 76.90625 -32.242188 C 76.90625 -14.785156 67.15625 -2.359375 41.519531 -2.359375 L 35.386719 -2.359375 C 28.625 -2.359375 27.207031 -4.71875 27.207031 -16.042969 Z M 27.207031 -65.898438 L 27.207031 -107.730469 L 39.160156 -107.730469 C 55.359375 -107.730469 64.636719 -99.554688 64.636719 -86.5 C 64.636719 -75.019531 57.402344 -65.898438 41.835938 -65.898438 Z M 27.207031 -65.898438 "/></g></g></g><g fill="#000000" fill-opacity="1"><g transform="translate(204.266065, 141.55602)"><g><path d="M 2.589844 -3.5 L 4.328125 -7.886719 L 6.050781 -3.5 Z M 8.503906 0 L 4.328125 -10.183594 L 0.140625 0 L 1.203125 0 L 2.226562 -2.589844 L 6.414062 -2.589844 L 7.4375 0 Z M 8.503906 0 "/></g></g></g><g fill="#000000" fill-opacity="1"><g transform="translate(215.144072, 141.55602)"><g><path d="M 2.03125 -4.71875 L 2.03125 -8.585938 L 4.246094 -8.585938 C 4.820312 -8.585938 5.28125 -8.40625 5.632812 -8.054688 C 5.96875 -7.691406 6.148438 -7.242188 6.148438 -6.679688 C 6.148438 -6.105469 5.96875 -5.644531 5.601562 -5.265625 C 5.238281 -4.902344 4.789062 -4.71875 4.246094 -4.71875 Z M 7.128906 -6.652344 C 7.128906 -7.492188 6.820312 -8.179688 6.234375 -8.726562 C 5.644531 -9.257812 4.945312 -9.523438 4.105469 -9.523438 L 1.050781 -9.523438 L 1.050781 0 L 2.03125 0 L 2.03125 -3.769531 L 4.105469 -3.769531 C 4.945312 -3.769531 5.660156 -4.035156 6.234375 -4.566406 C 6.820312 -5.125 7.128906 -5.8125 7.128906 -6.652344 Z M 7.128906 -6.652344 "/></g></g></g><g fill="#000000" fill-opacity="1"><g transform="translate(224.790318, 141.55602)"><g><path d="M 2.03125 0 L 2.03125 -9.523438 L 1.050781 -9.523438 L 1.050781 0 Z M 2.03125 0 "/></g></g></g><g fill="#000000" fill-opacity="1"><g transform="translate(230.11143, 141.55602)"><g><path d="M 2.03125 -0.980469 L 2.03125 -9.523438 L 1.050781 -9.523438 L 1.050781 0 L 5.433594 0 L 5.433594 -0.980469 Z M 2.03125 -0.980469 "/></g></g></g><g fill="#000000" fill-opacity="1"><g transform="translate(238.064014, 141.55602)"><g><path d="M 4.734375 -4.480469 L 8.335938 -9.523438 L 7.085938 -9.523438 L 4.246094 -5.449219 L 1.402344 -9.523438 L 0.140625 -9.523438 L 3.753906 -4.46875 L 3.753906 0 L 4.734375 0 Z M 4.734375 -4.480469 "/></g></g></g><g fill="#000000" fill-opacity="1"><g transform="translate(248.774044, 141.55602)"><g><path d="M 2.03125 -7.019531 L 7.382812 0.589844 L 7.382812 -9.523438 L 6.402344 -9.523438 L 6.402344 -2.519531 L 1.050781 -10.128906 L 1.050781 0 L 2.03125 0 Z M 2.03125 -7.019531 "/></g></g></g><g fill="#000000" fill-opacity="1"><g transform="translate(107.76503, 249.080215)"><g><path d="M 7.269531 -2.648438 C 7.269531 -3.320312 7.101562 -3.894531 6.78125 -4.34375 C 6.445312 -4.789062 5.996094 -5.097656 5.449219 -5.253906 C 5.769531 -5.394531 6.050781 -5.644531 6.261719 -6.023438 C 6.359375 -6.191406 6.429688 -6.359375 6.484375 -6.542969 C 6.542969 -6.722656 6.570312 -6.976562 6.570312 -7.296875 C 6.570312 -7.605469 6.484375 -7.929688 6.34375 -8.238281 C 5.925781 -9.089844 5.015625 -9.523438 3.628906 -9.523438 L 1.050781 -9.523438 L 1.050781 0 L 3.964844 0 C 4.929688 0 5.699219 -0.210938 6.289062 -0.660156 C 6.582031 -0.882812 6.820312 -1.175781 7.003906 -1.539062 C 7.171875 -1.890625 7.269531 -2.253906 7.269531 -2.648438 Z M 5.589844 -7.144531 C 5.589844 -6.625 5.433594 -6.246094 5.125 -5.996094 C 4.820312 -5.742188 4.414062 -5.617188 3.90625 -5.617188 L 2.03125 -5.617188 L 2.03125 -8.585938 L 3.628906 -8.585938 C 4.929688 -8.585938 5.589844 -8.097656 5.589844 -7.144531 Z M 6.289062 -2.84375 C 6.289062 -2.269531 6.09375 -1.808594 5.699219 -1.457031 C 5.324219 -1.105469 4.832031 -0.9375 4.246094 -0.9375 L 2.03125 -0.9375 L 2.03125 -4.636719 L 4.398438 -4.636719 C 4.886719 -4.636719 5.324219 -4.46875 5.699219 -4.132812 C 5.871094 -3.976562 6.007812 -3.796875 6.121094 -3.585938 C 6.234375 -3.363281 6.289062 -3.125 6.289062 -2.84375 Z M 6.289062 -2.84375 "/></g></g></g><g fill="#000000" fill-opacity="1"><g transform="translate(117.551246, 249.080215)"><g><path d="M 9.441406 -4.789062 C 9.441406 -3.699219 9.050781 -2.773438 8.292969 -2.015625 C 7.523438 -1.246094 6.597656 -0.867188 5.519531 -0.867188 C 4.441406 -0.867188 3.515625 -1.246094 2.757812 -2.015625 C 1.988281 -2.773438 1.609375 -3.699219 1.609375 -4.789062 C 1.609375 -5.855469 1.988281 -6.78125 2.757812 -7.550781 C 3.515625 -8.304688 4.441406 -8.699219 5.519531 -8.699219 C 6.597656 -8.699219 7.523438 -8.304688 8.292969 -7.550781 C 9.050781 -6.78125 9.441406 -5.855469 9.441406 -4.789062 Z M 10.421875 -4.789062 C 10.421875 -5.464844 10.28125 -6.09375 10.03125 -6.695312 C 9.777344 -7.285156 9.425781 -7.800781 8.980469 -8.25 C 8.53125 -8.683594 8.011719 -9.035156 7.425781 -9.285156 C 6.820312 -9.539062 6.191406 -9.679688 5.519531 -9.679688 C 4.847656 -9.679688 4.203125 -9.539062 3.613281 -9.285156 C 3.027344 -9.035156 2.507812 -8.683594 2.058594 -8.25 C 1.609375 -7.800781 1.261719 -7.285156 1.007812 -6.695312 C 0.757812 -6.09375 0.628906 -5.464844 0.628906 -4.789062 C 0.628906 -4.117188 0.757812 -3.472656 1.007812 -2.886719 C 1.261719 -2.285156 1.609375 -1.765625 2.058594 -1.316406 C 2.507812 -0.867188 3.027344 -0.519531 3.613281 -0.265625 C 4.203125 -0.015625 4.847656 0.113281 5.519531 0.113281 C 6.191406 0.113281 6.820312 -0.015625 7.425781 -0.265625 C 8.011719 -0.519531 8.53125 -0.867188 8.980469 -1.316406 C 9.425781 -1.765625 9.777344 -2.285156 10.03125 -2.886719 C 10.28125 -3.472656 10.421875 -4.117188 10.421875 -4.789062 Z M 10.421875 -4.789062 "/></g></g></g><g fill="#000000" fill-opacity="1"><g transform="translate(130.836765, 249.080215)"><g><path d="M 2.03125 -7.019531 L 7.382812 0.589844 L 7.382812 -9.523438 L 6.402344 -9.523438 L 6.402344 -2.519531 L 1.050781 -10.128906 L 1.050781 0 L 2.03125 0 Z M 2.03125 -7.019531 "/></g></g></g><g fill="#000000" fill-opacity="1"><g transform="translate(141.504804, 249.080215)"><g><path d="M 2.03125 -7.019531 L 7.382812 0.589844 L 7.382812 -9.523438 L 6.402344 -9.523438 L 6.402344 -2.519531 L 1.050781 -10.128906 L 1.050781 0 L 2.03125 0 Z M 2.03125 -7.019531 "/></g></g></g><g fill="#000000" fill-opacity="1"><g transform="translate(152.172843, 249.080215)"><g><path d="M 4.734375 -4.480469 L 8.335938 -9.523438 L 7.085938 -9.523438 L 4.246094 -5.449219 L 1.402344 -9.523438 L 0.140625 -9.523438 L 3.753906 -4.46875 L 3.753906 0 L 4.734375 0 Z M 4.734375 -4.480469 "/></g></g></g></svg>