<svg xmlns="http://www.w3.org/2000/svg" xmlns:xlink="http://www.w3.org/1999/xlink" width="500" zoomAndPan="magnify" viewBox="0 0 375 374.999991" height="500" preserveAspectRatio="xMidYMid meet" version="1.0"><defs><g/></defs><g fill="#000000" fill-opacity="1"><g transform="translate(110.222825, 207.470626)"><g><path d="M -2.671875 0 L 15.097656 0 L 15.097656 -2.042969 C 9.75 -3.144531 9.121094 -8.335938 13.210938 -18.558594 L 22.488281 -41.519531 L 66.839844 -41.519531 L 76.433594 -18.402344 C 81.464844 -6.605469 82.726562 -3.460938 77.847656 -2.042969 L 77.847656 0 L 102.226562 0 L 102.226562 -2.042969 C 98.921875 -3.460938 95.148438 -6.605469 90.273438 -18.402344 L 51.585938 -111.347656 L 39.789062 -106 L 41.207031 -102.699219 C 42.464844 -100.183594 42.621094 -98.136719 41.519531 -95.304688 L 10.539062 -18.558594 C 5.660156 -6.605469 1.730469 -3.460938 -2.671875 -2.042969 Z M 23.433594 -43.878906 L 44.351562 -95.621094 L 65.898438 -43.878906 Z M 23.433594 -43.878906 "/></g></g></g><g fill="#000000" fill-opacity="1"><g transform="translate(166.234497, 254.922215)"><g><path d="M 8.019531 0 L 40.105469 0 C 78.320312 0 91.53125 -18.558594 91.21875 -36.171875 C 91.058594 -51.585938 79.738281 -64.324219 54.101562 -65.582031 C 72.03125 -68.886719 78.949219 -78.636719 78.949219 -89.332031 C 78.949219 -102.070312 69.042969 -110.089844 44.824219 -110.089844 L 8.019531 -110.089844 L 8.019531 -108.046875 C 12.738281 -106.628906 14.3125 -103.011719 14.3125 -90.117188 L 14.3125 -19.972656 C 14.3125 -7.078125 12.738281 -3.460938 8.019531 -2.042969 Z M 27.207031 -16.042969 L 27.207031 -63.539062 L 43.25 -63.539062 C 66.839844 -63.539062 76.90625 -50.328125 76.90625 -32.242188 C 76.90625 -14.785156 67.15625 -2.359375 41.519531 -2.359375 L 35.386719 -2.359375 C 28.625 -2.359375 27.207031 -4.71875 27.207031 -16.042969 Z M 27.207031 -65.898438 L 27.207031 -107.730469 L 39.160156 -107.730469 C 55.359375 -107.730469 64.636719 -99.554688 64.636719 -86.5 C 64.636719 -75.019531 57.402344 -65.898438 41.835938 -65.898438 Z M 27.207031 -65.898438 "/></g></g></g></svg>